<mxfile host="65bd71144e">
    <diagram id="UHS9BYxaimWtFUys_EFg" name="Page-1">
        <mxGraphModel dx="1431" dy="724" grid="1" gridSize="10" guides="1" tooltips="1" connect="1" arrows="1" fold="1" page="1" pageScale="1" pageWidth="1400" pageHeight="850" math="0" shadow="0">
            <root>
                <mxCell id="0"/>
                <mxCell id="1" parent="0"/>
                <mxCell id="8" style="edgeStyle=none;html=1;fontFamily=Helvetica;fontSize=12;fontColor=#000000;strokeColor=#00FFFF;" parent="1" source="2" target="7" edge="1">
                    <mxGeometry relative="1" as="geometry"/>
                </mxCell>
                <mxCell id="2" value="&lt;font size=&quot;1&quot; color=&quot;#000000&quot;&gt;&lt;b style=&quot;font-size: 12px;&quot;&gt;Appen startas&lt;/b&gt;&lt;/font&gt;" style="strokeWidth=1;html=1;shape=mxgraph.flowchart.terminator;whiteSpace=wrap;fillColor=#f9f7ed;strokeColor=#36393d;" parent="1" vertex="1">
                    <mxGeometry x="300.01" y="70" width="120" height="60" as="geometry"/>
                </mxCell>
                <mxCell id="3" value="&lt;font size=&quot;1&quot; color=&quot;#000000&quot; style=&quot;&quot;&gt;&lt;b style=&quot;font-size: 12px;&quot;&gt;Appen avslutas&lt;/b&gt;&lt;/font&gt;" style="strokeWidth=1;html=1;shape=mxgraph.flowchart.terminator;whiteSpace=wrap;fillColor=#f9f7ed;strokeColor=#36393d;" parent="1" vertex="1">
                    <mxGeometry x="500" y="330" width="120" height="60" as="geometry"/>
                </mxCell>
                <mxCell id="9" style="edgeStyle=none;html=1;fontFamily=Helvetica;fontSize=12;fontColor=#000000;entryX=0.5;entryY=0;entryDx=0;entryDy=0;strokeColor=#00FFFF;" parent="1" source="7" edge="1" target="10">
                    <mxGeometry relative="1" as="geometry">
                        <mxPoint x="360" y="280" as="targetPoint"/>
                        <Array as="points">
                            <mxPoint x="360" y="310"/>
                        </Array>
                    </mxGeometry>
                </mxCell>
                <mxCell id="7" value="&lt;div style=&quot;&quot;&gt;&lt;font color=&quot;#000000&quot;&gt;&lt;span style=&quot;font-size: 12px;&quot;&gt;&lt;b&gt;Välkomsmeddelande visas&amp;nbsp;&lt;/b&gt;&lt;/span&gt;&lt;/font&gt;&lt;/div&gt;&lt;div style=&quot;&quot;&gt;&lt;font color=&quot;#000000&quot;&gt;&lt;span style=&quot;font-size: 12px;&quot;&gt;&lt;b&gt;&lt;br&gt;&lt;/b&gt;&lt;/span&gt;&lt;/font&gt;&lt;/div&gt;&lt;div style=&quot;text-align: left;&quot;&gt;&lt;font color=&quot;#000000&quot;&gt;&lt;span style=&quot;font-size: 12px;&quot;&gt;&lt;b&gt;Meny med val visas&lt;/b&gt;&lt;/span&gt;&lt;/font&gt;&lt;/div&gt;&lt;font color=&quot;#000000&quot; style=&quot;font-size: 12px;&quot;&gt;&lt;b&gt;&lt;div style=&quot;text-align: left;&quot;&gt;&lt;b style=&quot;background-color: initial;&quot;&gt;1 - Sök rim&lt;/b&gt;&lt;/div&gt;&lt;div style=&quot;text-align: left;&quot;&gt;&lt;b style=&quot;background-color: initial;&quot;&gt;2 - Sök i kategorier&lt;/b&gt;&lt;/div&gt;&lt;div style=&quot;text-align: left;&quot;&gt;&lt;b style=&quot;background-color: initial;&quot;&gt;3 - Spela &quot;Gissa julklappen&quot;&lt;/b&gt;&lt;/div&gt;&lt;div style=&quot;text-align: left;&quot;&gt;0 - Avsluta appen&lt;/div&gt;&lt;/b&gt;&lt;/font&gt;" style="rounded=0;whiteSpace=wrap;html=1;strokeColor=#36393d;strokeWidth=1;fontFamily=Helvetica;fontSize=13;fontColor=default;fillColor=#f9f7ed;" parent="1" vertex="1">
                    <mxGeometry x="268.76" y="170" width="182.5" height="119" as="geometry"/>
                </mxCell>
                <mxCell id="11" value="&lt;span&gt;&lt;font&gt;&amp;nbsp;Val 0&amp;nbsp;&lt;br&gt;&lt;/font&gt;&lt;/span&gt;" style="edgeStyle=none;html=1;fontFamily=Helvetica;fontSize=12;fontColor=#000000;exitX=1;exitY=0.5;exitDx=0;exitDy=0;labelBackgroundColor=#FFFFFF;strokeColor=#00FFFF;fontStyle=1" parent="1" source="10" target="3" edge="1">
                    <mxGeometry x="0.0001" relative="1" as="geometry">
                        <mxPoint x="400" y="353" as="sourcePoint"/>
                        <Array as="points">
                            <mxPoint x="470" y="360"/>
                        </Array>
                        <mxPoint as="offset"/>
                    </mxGeometry>
                </mxCell>
                <mxCell id="12" value="&amp;nbsp;Val 2&amp;nbsp;" style="edgeStyle=none;html=1;fontFamily=Helvetica;fontSize=12;fontColor=#000000;labelBackgroundColor=#FFFFFF;strokeColor=#00FFFF;fontStyle=1" parent="1" target="22" edge="1">
                    <mxGeometry x="0.0204" relative="1" as="geometry">
                        <mxPoint x="359" y="480" as="targetPoint"/>
                        <mxPoint x="360" y="390" as="sourcePoint"/>
                        <mxPoint as="offset"/>
                    </mxGeometry>
                </mxCell>
                <mxCell id="13" value="&amp;nbsp;Val 1&amp;nbsp;" style="edgeStyle=none;html=1;fontFamily=Helvetica;fontSize=12;fontColor=#000000;endArrow=classic;endFill=1;exitX=0.5;exitY=1;exitDx=0;exitDy=0;labelBackgroundColor=#FFFFFF;strokeColor=#00FFFF;fontStyle=1" parent="1" edge="1">
                    <mxGeometry x="-0.0035" relative="1" as="geometry">
                        <mxPoint x="205.00299999999993" y="460" as="targetPoint"/>
                        <mxPoint x="359.01" y="390" as="sourcePoint"/>
                        <mxPoint as="offset"/>
                    </mxGeometry>
                </mxCell>
                <mxCell id="19" style="edgeStyle=none;html=1;fontFamily=Helvetica;fontSize=12;fontColor=#FFFFFF;exitX=0.5;exitY=1;exitDx=0;exitDy=0;strokeColor=#00FFFF;fontStyle=1" parent="1" source="10" edge="1" target="41">
                    <mxGeometry relative="1" as="geometry">
                        <mxPoint x="518.1545064377683" y="465.5364806866953" as="targetPoint"/>
                    </mxGeometry>
                </mxCell>
                <mxCell id="20" value="&amp;nbsp;Val 3&amp;nbsp;" style="edgeLabel;html=1;align=center;verticalAlign=middle;resizable=0;points=[];fontSize=12;fontFamily=Helvetica;fontColor=#000000;labelBackgroundColor=#FFFFFF;fontStyle=1" parent="19" vertex="1" connectable="0">
                    <mxGeometry x="0.1802" y="-3" relative="1" as="geometry">
                        <mxPoint as="offset"/>
                    </mxGeometry>
                </mxCell>
                <mxCell id="10" value="&lt;b&gt;Användarval&lt;/b&gt;" style="rhombus;whiteSpace=wrap;html=1;strokeColor=#36393d;strokeWidth=1;fontFamily=Helvetica;fontSize=12;fontColor=#000000;fillColor=#f9f7ed;" parent="1" vertex="1">
                    <mxGeometry x="300.01" y="330" width="120" height="60" as="geometry"/>
                </mxCell>
                <mxCell id="27" style="edgeStyle=none;html=1;entryX=0.5;entryY=0;entryDx=0;entryDy=0;fontFamily=Helvetica;fontSize=12;fontColor=#000000;endArrow=classic;endFill=1;strokeColor=#00FFFF;" parent="1" source="21" target="24" edge="1">
                    <mxGeometry relative="1" as="geometry"/>
                </mxCell>
                <mxCell id="21" value="&lt;font color=&quot;#000000&quot;&gt;&lt;b&gt;Användaren anger en julklapp&lt;/b&gt;&lt;/font&gt;" style="shape=parallelogram;perimeter=parallelogramPerimeter;whiteSpace=wrap;html=1;fixedSize=1;strokeColor=#36393d;strokeWidth=1;fontFamily=Helvetica;fontSize=12;fontColor=#FFFFFF;fillColor=#f9f7ed;" parent="1" vertex="1">
                    <mxGeometry x="60" y="460" width="160" height="60" as="geometry"/>
                </mxCell>
                <mxCell id="37" style="edgeStyle=none;html=1;entryX=0.5;entryY=0;entryDx=0;entryDy=0;strokeColor=#00FFFF;" edge="1" parent="1" source="22" target="36">
                    <mxGeometry relative="1" as="geometry"/>
                </mxCell>
                <mxCell id="22" value="&lt;font color=&quot;#000000&quot;&gt;&lt;b&gt;Användaren anger en kategori&lt;/b&gt;&lt;/font&gt;" style="shape=parallelogram;perimeter=parallelogramPerimeter;whiteSpace=wrap;html=1;fixedSize=1;strokeColor=#36393d;strokeWidth=1;fontFamily=Helvetica;fontSize=12;fontColor=#FFFFFF;fillColor=#f9f7ed;" parent="1" vertex="1">
                    <mxGeometry x="279.69" y="460" width="160.63" height="60" as="geometry"/>
                </mxCell>
                <mxCell id="30" style="edgeStyle=none;html=1;entryX=0.5;entryY=0;entryDx=0;entryDy=0;fontFamily=Helvetica;fontSize=12;fontColor=#000000;endArrow=classic;endFill=1;strokeColor=#00FFFF;" parent="1" source="24" target="29" edge="1">
                    <mxGeometry relative="1" as="geometry">
                        <Array as="points">
                            <mxPoint x="140" y="620"/>
                        </Array>
                    </mxGeometry>
                </mxCell>
                <mxCell id="24" value="&lt;b&gt;Söker efter rim&lt;/b&gt;" style="rounded=0;whiteSpace=wrap;html=1;strokeColor=#36393d;strokeWidth=1;fontFamily=Helvetica;fontSize=12;fontColor=#000000;fillColor=#f9f7ed;" parent="1" vertex="1">
                    <mxGeometry x="80" y="560" width="120" height="40" as="geometry"/>
                </mxCell>
                <mxCell id="32" style="edgeStyle=none;html=1;fontFamily=Helvetica;fontSize=12;fontColor=#000000;endArrow=classic;endFill=1;strokeColor=#00FFFF;" parent="1" source="29" target="48" edge="1">
                    <mxGeometry relative="1" as="geometry">
                        <mxPoint x="140" y="740" as="targetPoint"/>
                    </mxGeometry>
                </mxCell>
                <mxCell id="29" value="&lt;b&gt;Visar rim för angiven julklapp&amp;nbsp;&lt;/b&gt;" style="rounded=0;whiteSpace=wrap;html=1;strokeColor=#36393d;strokeWidth=1;fontFamily=Helvetica;fontSize=12;fontColor=#000000;fillColor=#f9f7ed;" parent="1" vertex="1">
                    <mxGeometry x="80" y="640" width="120" height="60" as="geometry"/>
                </mxCell>
                <mxCell id="40" style="edgeStyle=none;html=1;strokeColor=#00FFFF;" edge="1" parent="1" source="35" target="49">
                    <mxGeometry relative="1" as="geometry">
                        <mxPoint x="360.01" y="740" as="targetPoint"/>
                    </mxGeometry>
                </mxCell>
                <mxCell id="35" value="&lt;b&gt;Visar juklappar i angiven kategori&amp;nbsp;&lt;/b&gt;" style="rounded=0;whiteSpace=wrap;html=1;strokeColor=#36393d;strokeWidth=1;fontFamily=Helvetica;fontSize=12;fontColor=#000000;fillColor=#f9f7ed;" vertex="1" parent="1">
                    <mxGeometry x="300.01" y="640" width="120" height="60" as="geometry"/>
                </mxCell>
                <mxCell id="38" style="edgeStyle=none;html=1;strokeColor=#00FFFF;" edge="1" parent="1" source="36" target="35">
                    <mxGeometry relative="1" as="geometry"/>
                </mxCell>
                <mxCell id="36" value="&lt;b&gt;Söker efter juklappar&lt;/b&gt;" style="rounded=0;whiteSpace=wrap;html=1;strokeColor=#36393d;strokeWidth=1;fontFamily=Helvetica;fontSize=12;fontColor=#000000;fillColor=#f9f7ed;" vertex="1" parent="1">
                    <mxGeometry x="290.01" y="560" width="139.99" height="40" as="geometry"/>
                </mxCell>
                <mxCell id="44" style="edgeStyle=none;html=1;entryX=0.5;entryY=0;entryDx=0;entryDy=0;strokeColor=#00FFFF;" edge="1" parent="1" source="41" target="42">
                    <mxGeometry relative="1" as="geometry"/>
                </mxCell>
                <mxCell id="41" value="&lt;font color=&quot;#000000&quot;&gt;&lt;b&gt;Användaren anger en kategori&lt;/b&gt;&lt;/font&gt;" style="shape=parallelogram;perimeter=parallelogramPerimeter;whiteSpace=wrap;html=1;fixedSize=1;strokeColor=#36393d;strokeWidth=1;fontFamily=Helvetica;fontSize=12;fontColor=#FFFFFF;fillColor=#f9f7ed;" vertex="1" parent="1">
                    <mxGeometry x="540" y="460" width="160.63" height="60" as="geometry"/>
                </mxCell>
                <mxCell id="57" style="edgeStyle=none;html=1;entryX=0.5;entryY=0;entryDx=0;entryDy=0;fontSize=12;strokeColor=#00FFFF;" edge="1" parent="1" source="42" target="56">
                    <mxGeometry relative="1" as="geometry"/>
                </mxCell>
                <mxCell id="42" value="&lt;b&gt;Visar rim&lt;/b&gt;" style="rounded=0;whiteSpace=wrap;html=1;strokeColor=#36393d;strokeWidth=1;fontFamily=Helvetica;fontSize=12;fontColor=#000000;fillColor=#f9f7ed;" vertex="1" parent="1">
                    <mxGeometry x="580.49" y="560" width="79.68" height="40" as="geometry"/>
                </mxCell>
                <mxCell id="48" value="&lt;span style=&quot;background-color: rgb(252, 248, 248);&quot;&gt;&lt;b style=&quot;border-color: rgb(0, 0, 0); font-family: Helvetica; font-size: 12px; font-style: normal; font-variant-ligatures: normal; font-variant-caps: normal; letter-spacing: normal; orphans: 2; text-indent: 0px; text-transform: none; widows: 2; word-spacing: 0px; -webkit-text-stroke-width: 0px; text-decoration-thickness: initial; text-decoration-style: initial; text-decoration-color: initial; color: rgb(0, 0, 0); text-align: center;&quot;&gt;Går tillbaka till huvudmenyn&lt;/b&gt;&lt;br&gt;&lt;/span&gt;" style="rounded=0;whiteSpace=wrap;html=1;strokeColor=#36393d;strokeWidth=1;fontFamily=Helvetica;fontSize=12;fontColor=#000000;fillColor=#f9f7ed;" vertex="1" parent="1">
                    <mxGeometry x="85" y="740" width="110" height="50" as="geometry"/>
                </mxCell>
                <mxCell id="49" value="&lt;span style=&quot;background-color: rgb(252, 248, 248);&quot;&gt;&lt;b style=&quot;border-color: rgb(0, 0, 0); font-family: Helvetica; font-size: 12px; font-style: normal; font-variant-ligatures: normal; font-variant-caps: normal; letter-spacing: normal; orphans: 2; text-indent: 0px; text-transform: none; widows: 2; word-spacing: 0px; -webkit-text-stroke-width: 0px; text-decoration-thickness: initial; text-decoration-style: initial; text-decoration-color: initial; color: rgb(0, 0, 0); text-align: center;&quot;&gt;Går tillbaka till huvudmenyn&lt;/b&gt;&lt;br&gt;&lt;/span&gt;" style="rounded=0;whiteSpace=wrap;html=1;strokeColor=#36393d;strokeWidth=1;fontFamily=Helvetica;fontSize=12;fontColor=#000000;fillColor=#f9f7ed;" vertex="1" parent="1">
                    <mxGeometry x="303.75" y="740" width="110" height="50" as="geometry"/>
                </mxCell>
                <mxCell id="54" value="&lt;font style=&quot;font-size: 12px;&quot;&gt;&lt;span&gt;&amp;nbsp;Ja&amp;nbsp;&lt;/span&gt;&lt;/font&gt;" style="edgeStyle=none;html=1;entryX=0.25;entryY=0;entryDx=0;entryDy=0;labelBackgroundColor=#FFFFFF;fontColor=#000000;strokeColor=#00FFFF;fontStyle=1" edge="1" parent="1" source="50" target="52">
                    <mxGeometry x="0.0238" relative="1" as="geometry">
                        <mxPoint as="offset"/>
                    </mxGeometry>
                </mxCell>
                <mxCell id="58" value="&lt;span&gt;&amp;nbsp;Nej&amp;nbsp;&lt;/span&gt;" style="edgeStyle=none;html=1;fontSize=12;entryX=0.75;entryY=0;entryDx=0;entryDy=0;fontColor=#000000;labelBackgroundColor=#FFFFFF;strokeColor=#00FFFF;fontStyle=1" edge="1" parent="1" source="50" target="52">
                    <mxGeometry x="0.0127" relative="1" as="geometry">
                        <mxPoint x="650" y="840" as="targetPoint"/>
                        <mxPoint as="offset"/>
                    </mxGeometry>
                </mxCell>
                <mxCell id="50" value="&lt;b&gt;Rätt svar?&lt;/b&gt;" style="rhombus;whiteSpace=wrap;html=1;strokeColor=#36393d;strokeWidth=1;fontFamily=Helvetica;fontSize=12;fontColor=#000000;fillColor=#f9f7ed;" vertex="1" parent="1">
                    <mxGeometry x="559.35" y="730" width="121.95" height="50" as="geometry"/>
                </mxCell>
                <mxCell id="61" style="edgeStyle=none;html=1;entryX=0.5;entryY=0;entryDx=0;entryDy=0;fontSize=12;strokeColor=#00FFFF;" edge="1" parent="1" source="52" target="60">
                    <mxGeometry relative="1" as="geometry"/>
                </mxCell>
                <mxCell id="52" value="&lt;b&gt;Ökar räknaren för korrekta resp. felaktiga svar&lt;/b&gt;" style="rounded=0;whiteSpace=wrap;html=1;strokeColor=#36393d;strokeWidth=1;fontFamily=Helvetica;fontSize=12;fontColor=#000000;fillColor=#f9f7ed;" vertex="1" parent="1">
                    <mxGeometry x="555.32" y="830" width="130" height="70" as="geometry"/>
                </mxCell>
                <mxCell id="59" style="edgeStyle=none;html=1;fontSize=12;strokeColor=#00FFFF;" edge="1" parent="1" source="56" target="50">
                    <mxGeometry relative="1" as="geometry"/>
                </mxCell>
                <mxCell id="56" value="&lt;font color=&quot;#000000&quot;&gt;&lt;b&gt;Användaren gissar julklappen&lt;/b&gt;&lt;/font&gt;" style="shape=parallelogram;perimeter=parallelogramPerimeter;whiteSpace=wrap;html=1;fixedSize=1;strokeColor=#36393d;strokeWidth=1;fontFamily=Helvetica;fontSize=12;fontColor=#FFFFFF;fillColor=#f9f7ed;" vertex="1" parent="1">
                    <mxGeometry x="541.29" y="640" width="158.06" height="60" as="geometry"/>
                </mxCell>
                <mxCell id="66" value="&lt;span&gt;&amp;nbsp;Ja&amp;nbsp;&lt;/span&gt;" style="edgeStyle=none;html=1;fontSize=12;fontColor=#000000;labelBackgroundColor=#FFFFFF;strokeColor=#00FFFF;fontStyle=1" edge="1" parent="1" source="60" target="65">
                    <mxGeometry relative="1" as="geometry">
                        <mxPoint as="offset"/>
                    </mxGeometry>
                </mxCell>
                <mxCell id="69" style="edgeStyle=none;html=1;fontSize=12;strokeColor=#00FFFF;" edge="1" parent="1" source="60">
                    <mxGeometry relative="1" as="geometry">
                        <mxPoint x="650" y="700" as="targetPoint"/>
                        <Array as="points">
                            <mxPoint x="790" y="840"/>
                        </Array>
                    </mxGeometry>
                </mxCell>
                <mxCell id="70" value="&lt;span&gt;&amp;nbsp;Nej&amp;nbsp;&lt;/span&gt;" style="edgeLabel;html=1;align=center;verticalAlign=middle;resizable=0;points=[];fontSize=12;fontColor=#000000;labelBackgroundColor=#FFFFFF;fontStyle=1" vertex="1" connectable="0" parent="69">
                    <mxGeometry x="0.0038" y="4" relative="1" as="geometry">
                        <mxPoint as="offset"/>
                    </mxGeometry>
                </mxCell>
                <mxCell id="60" value="&lt;b&gt;Fler än 10 julklappar?&lt;/b&gt;" style="rhombus;whiteSpace=wrap;html=1;strokeColor=#36393d;strokeWidth=1;fontFamily=Helvetica;fontSize=12;fontColor=#000000;fillColor=#f9f7ed;" vertex="1" parent="1">
                    <mxGeometry x="560.16" y="940" width="120.32" height="80" as="geometry"/>
                </mxCell>
                <mxCell id="80" style="edgeStyle=none;html=1;fontSize=12;strokeColor=#00FFFF;" edge="1" parent="1" source="65" target="73">
                    <mxGeometry relative="1" as="geometry"/>
                </mxCell>
                <mxCell id="65" value="&lt;b&gt;Visar sammanställning av korrekta och felaktiga svar&lt;/b&gt;" style="rounded=0;whiteSpace=wrap;html=1;strokeColor=#36393d;strokeWidth=1;fontFamily=Helvetica;fontSize=12;fontColor=#000000;fillColor=#f9f7ed;" vertex="1" parent="1">
                    <mxGeometry x="534.99" y="1080" width="170.65" height="70" as="geometry"/>
                </mxCell>
                <mxCell id="74" style="edgeStyle=none;html=1;fontSize=12;entryX=0.25;entryY=1;entryDx=0;entryDy=0;exitX=0;exitY=0.5;exitDx=0;exitDy=0;strokeColor=#00FFFF;" edge="1" parent="1" source="73" target="41">
                    <mxGeometry relative="1" as="geometry">
                        <mxPoint x="600" y="520" as="targetPoint"/>
                        <Array as="points">
                            <mxPoint x="460" y="840"/>
                        </Array>
                    </mxGeometry>
                </mxCell>
                <mxCell id="75" value="&amp;nbsp;Val 1&amp;nbsp;" style="edgeLabel;html=1;align=center;verticalAlign=middle;resizable=0;points=[];fontSize=12;fontStyle=1;fontColor=#000000;labelBackgroundColor=#FFFFFF;" vertex="1" connectable="0" parent="74">
                    <mxGeometry x="-0.2426" y="-1" relative="1" as="geometry">
                        <mxPoint y="-1" as="offset"/>
                    </mxGeometry>
                </mxCell>
                <mxCell id="78" value="&amp;nbsp;Val 0&amp;nbsp;" style="edgeStyle=none;html=1;fontSize=12;fontStyle=1;fontColor=#000000;labelBackgroundColor=#FFFFFF;strokeColor=#00FFFF;" edge="1" parent="1" source="73" target="77">
                    <mxGeometry x="0.0204" relative="1" as="geometry">
                        <mxPoint as="offset"/>
                    </mxGeometry>
                </mxCell>
                <mxCell id="73" value="&lt;div style=&quot;&quot;&gt;&lt;b style=&quot;background-color: initial;&quot;&gt;Användarval&amp;nbsp;&lt;/b&gt;&lt;/div&gt;&lt;b&gt;&lt;div style=&quot;text-align: left;&quot;&gt;&lt;b style=&quot;background-color: initial;&quot;&gt;1 - Spela igen&lt;/b&gt;&lt;/div&gt;&lt;div style=&quot;text-align: left;&quot;&gt;&lt;b style=&quot;background-color: initial;&quot;&gt;0 - Avsluta&lt;/b&gt;&lt;/div&gt;&lt;/b&gt;" style="rhombus;whiteSpace=wrap;html=1;strokeColor=#36393d;strokeWidth=1;fontFamily=Helvetica;fontSize=12;fontColor=#000000;fillColor=#f9f7ed;align=center;" vertex="1" parent="1">
                    <mxGeometry x="539.9999999999999" y="1190" width="156.54" height="120" as="geometry"/>
                </mxCell>
                <mxCell id="77" value="&lt;span style=&quot;background-color: rgb(252, 248, 248);&quot;&gt;&lt;b style=&quot;border-color: rgb(0, 0, 0); font-family: Helvetica; font-size: 12px; font-style: normal; font-variant-ligatures: normal; font-variant-caps: normal; letter-spacing: normal; orphans: 2; text-indent: 0px; text-transform: none; widows: 2; word-spacing: 0px; -webkit-text-stroke-width: 0px; text-decoration-thickness: initial; text-decoration-style: initial; text-decoration-color: initial; color: rgb(0, 0, 0); text-align: center;&quot;&gt;Går tillbaka till huvudmenyn&lt;/b&gt;&lt;br&gt;&lt;/span&gt;" style="rounded=0;whiteSpace=wrap;html=1;strokeColor=#36393d;strokeWidth=1;fontFamily=Helvetica;fontSize=12;fontColor=#000000;fillColor=#f9f7ed;" vertex="1" parent="1">
                    <mxGeometry x="563.2699999999999" y="1380" width="110" height="50" as="geometry"/>
                </mxCell>
            </root>
        </mxGraphModel>
    </diagram>
</mxfile>